# xmcd
#
# Track frame offsets:
#   150
#   17802
#   35892
#   58010
#   78390
#   108972
#   133715
#   147925
#   176000
#   200477
#
# Disc length: 2944 seconds
#
# Revision: 4
# Processed by: cddbd v1.5PL3 Copyright (c) Steve Scherf et al.
# Submitted via: Media_Universe 3.0
#
DISCID=8e0b7e0a
DTITLE=Various Artist - Hearts, Hands and Hides
DYEAR=1997
DGENRE=Native US
TTITLE0=Peter Wyoming Bender - Night Before Sundance
TTITLE1=Mesa Music Consort - Drums of the Heart
TTITLE2=Marilyn Rife with Alice Gomez - Legends
TTITLE3=Native Flute Ensemble - Drummer's Journey
TTITLE4=Eric Casillas - Ya-Ta-Hey
TTITLE5=Mesa Music Consort - Invoking the Hawk's Spirit
TTITLE6=Peter Wyoming Bender - Crow Dog's Paradise
TTITLE7=Marilyn Rife with Alice Gomez - Flute Song
TTITLE8=Eric Casillas - Road Opener
TTITLE9=Native Flute Ensemble - Drum Quest
EXTD=A Shamanic Journey into Native Drumming of the Americas
EXTT0=
EXTT1=
EXTT2=
EXTT3=
EXTT4=
EXTT5=
EXTT6=
EXTT7=
EXTT8=
EXTT9=
PLAYORDER=
